<svg viewBox="0 0 640 180" fill="none" xmlns="http://www.w3.org/2000/svg"><path d="M67.6328 41.4702C50.9697 41.4702 39.2074 50.8512 33.8164 59.7384V3.00049H0L0 173.791H33.8164V96.2747C33.8164 82.4501 42.8831 72.0817 57.0958 72.0817 68.613 72.0817 78.4149 80.9689 78.4149 95.2872V173.791H111.986V99.2371C111.986 71.8349 104.39 41.4702 67.6328 41.4702ZM125.17 109.605C125.17 148.363 151.39 177 192.558 177 224.414 177 241.568 157.744 246.468 148.61L224.169 131.577C220.493 137.008 210.447 147.376 193.048 147.376 174.18 147.376 160.457 135.033 159.722 117.752H249.899C250.144 115.283 250.144 112.815 250.144 110.346 250.144 68.1318 227.6 41.4702 187.902 41.4702 151.39 41.4702 125.17 70.6005 125.17 109.605ZM160.702 95.534C162.172 80.722 172.464 69.3661 188.392 69.3661 203.83 69.3661 215.102 79.7346 215.838 95.534H160.702ZM259.265 133.798C259.265 160.953 281.32 177 307.295 177 321.997 177 331.799 172.556 338.415 165.397L340.621 173.79H370.516V92.0775C370.516 63.1941 356.302 41.1329 315.136 41.4699 291.128 41.6664 271.88 54.958 263.459 70.0622L283.91 85.1664C290.527 76.1039 301.301 69.458 315.136 69.458 329.099 69.458 336.7 78.4999 336.7 89.8557V98.2492C332.044 95.0399 321.997 91.0901 309.01 91.0901 279.114 91.0901 259.265 108.371 259.265 133.798ZM293.082 132.811C293.082 122.195 302.149 114.789 315.136 114.789 328.123 114.789 337.435 121.455 337.435 132.811 337.435 143.673 328.123 150.585 315.381 150.585 302.639 150.585 293.082 143.426 293.082 132.811ZM390.898 173.791H424.715V3H390.898V173.791ZM449.597 43.5341C444.509 45.2241 439.377 44.6794 439.377 44.6794V72.3285H452.855V123.183C452.855 158.238 466.332 175.519 496.963 175.519 506.275 175.519 511.421 174.284 511.421 174.284V145.154C508.725 145.401 507.5 145.401 505.295 145.401 492.307 145.401 486.426 141.451 486.426 122.196V72.3285H510.441V44.6794H486.426V3H459.005V28.7045C459.005 36.1483 455.841 41.46 449.597 43.5341ZM595.647 41.4702C578.984 41.4702 567.221 50.8511 561.83 59.7383V3H528.014V173.791H561.83V96.2746C561.83 82.45 570.897 72.0816 585.11 72.0816 596.627 72.0816 606.429 80.9688 606.429 95.2871V173.791H640V99.237C640 71.8348 632.404 41.4702 595.647 41.4702Z" fill="#000"/></svg>